# xmcd CD database file
#
# Track frame offsets:
#	187
#	34210
#	55705
#	67115
#	96130
#	150430
#	175315
#
# Disc length: 2676 seconds
#
# Revision: 0
# Processed by: cddbd v1.5.2PL0 Copyright (c) Steve Scherf et al.
# Submitted via: CDex 1.51
#
DISCID=550a7207
DTITLE=CRUSADERS - BEST OF CRUSADERS
DYEAR=1994
DGENRE=Jazz
TTITLE0=STREET LIFE
TTITLE1=NITE CRAWLER
TTITLE2=I FELT THE LOVE
TTITLE3=SOUL SHADOWS
TTITLE4=SO FAR AWAY
TTITLE5=PUT IT WHERE YOU WANT IT
TTITLE6=KEEP THAT SAME OLD FEELING
EXTD=YEAR: 1994
EXTT0=
EXTT1=
EXTT2=
EXTT3=
EXTT4=
EXTT5=
EXTT6=
PLAYORDER=
